<svg width="20" height="18" viewBox="0 0 20 18" fill="none" xmlns="http://www.w3.org/2000/svg">
<path fill-rule="evenodd" clip-rule="evenodd" d="M7.60002 3.35454C7.60002 2.16462 8.56464 1.2 9.75456 1.2C10.1713 1.2 10.5611 1.33837 10.8509 1.59389C11.3573 2.04047 11.8192 2.50296 12.2343 2.97756C10.319 4.09516 9.42068 6.59531 10.0628 8.99173C10.5419 10.7798 12.1686 12.3515 13.5515 13.4298C14.2599 13.9821 14.9391 14.4312 15.4408 14.7421C15.6921 14.8978 15.8998 15.0195 16.0457 15.1028C16.1187 15.1444 16.1762 15.1765 16.2161 15.1985L16.2624 15.2238L16.2751 15.2306L16.2787 15.2326L16.2798 15.2332C16.28 15.2333 16.2805 15.2335 16.5627 14.7041L16.2798 15.2332L16.5861 15.3965L16.8801 15.2133C18.2692 14.3476 19.0494 12.8005 19.4023 11.2128C19.7569 9.6176 19.7044 7.88308 19.3357 6.50707C18.594 3.73922 16.0035 1.87903 13.4078 2.50635C12.8861 1.87422 12.2954 1.2678 11.6446 0.693883C11.1134 0.225409 10.4324 0 9.75456 0C7.9019 0 6.40002 1.50188 6.40002 3.35454V6.91667C5.76312 6.34662 4.92205 6 4.00002 6C2.0118 6 0.400024 7.61177 0.400024 9.6V10.2H1.60002V9.6C1.60002 8.27452 2.67454 7.2 4.00002 7.2C5.32551 7.2 6.40002 8.27452 6.40002 9.6V16.2H0.400024V17.4H12.4V16.2H7.60002V3.35454ZM11.2219 8.68115C10.6739 6.63579 11.5153 4.69846 12.9942 3.93241C14.167 5.56175 14.8 7.29778 14.8 9H16C16 7.12999 15.3552 5.28938 14.2194 3.59383C15.8984 3.49116 17.6233 4.75264 18.1766 6.81765C18.494 8.00229 18.5447 9.54084 18.2309 10.9524C17.946 12.2341 17.3805 13.3318 16.5291 13.9964C16.406 13.9248 16.2515 13.8328 16.073 13.7221C15.597 13.4272 14.9551 13.0025 14.2894 12.4834C12.924 11.4188 11.5905 10.0567 11.2219 8.68115Z" fill="#292929"/>
</svg>
