<svg width="78" height="96" viewBox="0 0 78 96" fill="none" xmlns="http://www.w3.org/2000/svg">
<path fill-rule="evenodd" clip-rule="evenodd" d="M19.5 0L20.7481 0.83205C25.9505 4.30036 29.25 11.0487 29.25 17.7042C29.25 19.4311 29.0278 21.1644 28.6079 22.8449C30.425 21.9123 32.4076 21.2565 34.5 20.9334C34.9941 20.8571 35.4944 20.7994 36 20.7609C36.4951 20.7233 36.9953 20.7041 37.5 20.7041C37.6688 20.7041 37.837 20.6999 38.0048 20.6957C38.3387 20.6873 38.6705 20.679 39 20.7041C39.3295 20.679 39.6613 20.6873 39.9952 20.6957C40.163 20.6999 40.3312 20.7041 40.5 20.7041C41.0047 20.7041 41.5049 20.7233 42 20.7609C42.5056 20.7994 43.0059 20.8571 43.5 20.9334C45.5924 21.2565 47.575 21.9123 49.3921 22.8449C48.9722 21.1644 48.75 19.4311 48.75 17.7042C48.75 11.0487 52.0495 4.30036 57.2519 0.83205L58.5 0L59.7481 0.83205C64.9505 4.30036 68.25 11.0487 68.25 17.7042C68.25 19.4311 68.0278 21.1644 67.6079 22.8449C69.425 21.9123 71.4076 21.2565 73.5 20.9334C73.9941 20.8571 74.4944 20.7994 75 20.7609C75.4951 20.7233 75.9953 20.7041 76.5 20.7041C76.6688 20.7041 76.837 20.6999 77.0048 20.6957C77.3387 20.6873 77.6705 20.679 78 20.7041V58.2041C78 67.9535 70.8453 76.0317 61.5 77.4748V95.7041H55.5V77.4748C46.1547 76.0317 39 67.9535 39 58.2041C39 67.9535 31.8453 76.0317 22.5 77.4748V95.7041H16.5V77.4748C7.15473 76.0317 0 67.9535 0 58.2041V20.7041C0.329526 20.679 0.661342 20.6873 0.995244 20.6957C1.16298 20.6999 1.33124 20.7041 1.5 20.7041C2.00471 20.7041 2.50494 20.7233 3.00001 20.7609C3.50564 20.7994 4.00588 20.8571 4.5 20.9334C6.59241 21.2565 8.57501 21.9123 10.3921 22.8449C9.97216 21.1644 9.75 19.4311 9.75 17.7042C9.75 11.0487 13.0495 4.30036 18.2519 0.83205L19.5 0ZM24.75 17.7042C24.75 22.3492 22.7101 26.9241 19.683 29.7041H19.317C16.2899 26.9241 14.25 22.3492 14.25 17.7042C14.25 12.9661 16.3724 8.30104 19.5 5.53938C22.6276 8.30104 24.75 12.9661 24.75 17.7042ZM22.5 47.4748V57.904C29.3467 56.5142 34.5 50.461 34.5 43.2041V40.6648C31.5281 44.2384 27.3034 46.7331 22.5 47.4748ZM16.5 57.904L16.5 47.4748C11.6966 46.7331 7.47188 44.2384 4.5 40.6648V43.2041C4.5 50.461 9.65328 56.5142 16.5 57.904ZM16.5 62.4748V72.9041C9.65328 71.5142 4.5 65.461 4.5 58.2041V55.6648C7.47188 59.2384 11.6966 61.7331 16.5 62.4748ZM22.5 72.9041V62.4748C27.3034 61.7331 31.5281 59.2384 34.5 55.6648V58.2041C34.5 65.461 29.3467 71.5142 22.5 72.9041ZM32.4933 35.7041C32.773 35.2205 33.0265 34.7199 33.2519 34.2041C33.8642 32.8027 34.2685 31.2897 34.4259 29.7041C34.4749 29.2107 34.5 28.7102 34.5 28.204V25.504C27.6533 26.8938 22.5 32.9472 22.5 40.2041V42.904C24.7173 42.454 26.7567 41.5148 28.5013 40.2041C30.1157 38.9912 31.4774 37.4602 32.4933 35.7041ZM10.4987 40.2041C8.88435 38.9912 7.52268 37.4602 6.50681 35.7041C6.22707 35.2205 5.97354 34.7199 5.74819 34.2041C5.13589 32.8027 4.73151 31.2897 4.57406 29.7041C4.52508 29.2107 4.5 28.7104 4.5 28.2041L4.5 25.504C11.3467 26.8938 16.5 32.9472 16.5 40.2041V42.904C14.2827 42.454 12.2433 41.5148 10.4987 40.2041ZM63.75 17.7042C63.75 22.3492 61.7101 26.9241 58.683 29.7041H58.317C55.2899 26.9241 53.25 22.3492 53.25 17.7042C53.25 12.9661 55.3724 8.30104 58.5 5.53938C61.6276 8.30104 63.75 12.9661 63.75 17.7042ZM61.5 47.4748V57.904C68.3467 56.5142 73.5 50.461 73.5 43.2041V40.6648C70.5281 44.2384 66.3034 46.7331 61.5 47.4748ZM55.5 57.904L55.5 47.4748C50.6966 46.7331 46.4719 44.2384 43.5 40.6648V43.2041C43.5 50.461 48.6533 56.5142 55.5 57.904ZM55.5 62.4748V72.9041C48.6533 71.5142 43.5 65.461 43.5 58.2041V55.6648C46.4719 59.2384 50.6966 61.7331 55.5 62.4748ZM61.5 72.9041V62.4748C66.3034 61.7331 70.5281 59.2384 73.5 55.6648V58.2041C73.5 65.461 68.3467 71.5142 61.5 72.9041ZM71.4933 35.7041C71.773 35.2205 72.0265 34.7199 72.2519 34.2041C72.8642 32.8027 73.2685 31.2897 73.4259 29.7041C73.4749 29.2107 73.5 28.7102 73.5 28.204V25.504C66.6533 26.8938 61.5 32.9472 61.5 40.2041V42.904C63.7173 42.454 65.7567 41.5148 67.5013 40.2041C69.1156 38.9912 70.4774 37.4602 71.4933 35.7041ZM49.4987 40.2041C47.8843 38.9912 46.5227 37.4602 45.5068 35.7041C45.2271 35.2205 44.9735 34.7199 44.7482 34.2041C44.1359 32.8027 43.7315 31.2897 43.5741 29.7041C43.5251 29.2107 43.5 28.7104 43.5 28.2041V25.504C50.3467 26.8938 55.5 32.9472 55.5 40.2041V42.904C53.2827 42.454 51.2433 41.5148 49.4987 40.2041Z" fill="#F68511"/>
</svg>
